<svg width="36" height="36" viewBox="0 0 36 36" fill="none" xmlns="http://www.w3.org/2000/svg">
<path d="M17.8793 2.88C9.60819 2.88 2.87988 9.60831 2.87988 17.8794C2.87988 26.1505 9.60819 32.8788 17.8793 32.8788C26.1504 32.8788 32.8787 26.1505 32.8787 17.8794C32.8787 9.60831 26.1504 2.88 17.8793 2.88ZM17.8793 5.45133C24.7327 5.45133 30.3074 11.026 30.3074 17.8794C30.3074 18.14 30.2971 18.3971 30.2816 18.6525C27.0161 20.3719 22.9619 21.3936 18.565 21.3936C13.5183 21.3936 8.91907 20.0496 5.45292 17.8451C5.47178 11.0088 11.0396 5.45133 17.8793 5.45133Z" fill="#354260"/>
</svg>
