<svg width="36" height="36" viewBox="0 0 36 36" fill="none" xmlns="http://www.w3.org/2000/svg">
<path d="M18 3C26.2842 3 33 9.71572 33 18C33 26.2842 26.2842 33 18 33C9.71572 33 3 26.2842 3 18C3 9.71572 9.71572 3 18 3ZM18 24C14.7014 24 11.7768 25.242 9.84798 26.8061C11.9883 28.7883 14.8527 30 18 30C21.1473 30 24.0117 28.7883 26.1521 26.8061C24.2232 25.242 21.2987 24 18 24ZM18 6C11.3726 6 6 11.3726 6 18C6 20.3994 6.70424 22.6344 7.91728 24.5094C10.3904 22.4877 14.0021 21 18 21C21.9979 21 25.6096 22.4877 28.0827 24.5094C29.2957 22.6344 30 20.3994 30 18C30 11.3726 24.6275 6 18 6ZM18 7.5C21.3137 7.5 24 10.1863 24 13.5C24 16.8137 21.3137 19.5 18 19.5C14.6863 19.5 12 16.8137 12 13.5C12 10.1863 14.6863 7.5 18 7.5ZM18 10.5C16.3431 10.5 15 11.8431 15 13.5C15 15.1569 16.3431 16.5 18 16.5C19.6569 16.5 21 15.1569 21 13.5C21 11.8431 19.6569 10.5 18 10.5Z" fill="#354260"/>
</svg>
