<svg width="36" height="36" viewBox="0 0 36 36" fill="none" xmlns="http://www.w3.org/2000/svg">
<path d="M28.5 6C30.8966 6 32.8555 7.87339 32.9924 10.2356L33 10.5V13.2257C33 14.1352 32.4715 14.8431 31.836 15.2199L31.6752 15.3072C30.6797 15.7984 30 16.8213 30 18C30 19.0945 30.586 20.0546 31.4668 20.5795L31.6752 20.6928C32.3256 21.0136 32.9041 21.6762 32.9892 22.5512L33 22.7744V25.5C33 27.8966 31.1267 29.8555 28.7644 29.9924L28.5 30H7.5C5.10348 30 3.14451 28.1267 3.00764 25.7644L3 25.5V22.7744C3 21.8648 3.5285 21.1569 4.16393 20.78L4.32477 20.6928C5.32036 20.2016 6 19.1787 6 18C6 16.9055 5.41399 15.9454 4.53314 15.4205L4.32477 15.3072C3.67444 14.9864 3.09592 14.3238 3.01077 13.4488L3 13.2257V10.5C3 8.10348 4.87339 6.14451 7.23559 6.00764L7.5 6H28.5ZM28.5 9H7.5C6.73075 9 6.09674 9.57907 6.01009 10.3251L6 10.5V12.803C7.79085 13.8388 9 15.777 9 18C9 20.106 7.91478 21.9563 6.27784 23.0261L6 23.1971V25.5C6 26.2693 6.57907 26.9033 7.32507 26.9899L7.5 27H28.5C29.2693 27 29.9033 26.421 29.9899 25.6749L30 25.5V23.1971C28.2092 22.1611 27 20.223 27 18C27 15.894 28.0852 14.0436 29.7222 12.974L30 12.803V10.5C30 9.73075 29.421 9.09674 28.6749 9.01009L28.5 9ZM15 13.5C15.7693 13.5 16.4033 14.0791 16.4899 14.8251L16.5 15V21C16.5 21.8285 15.8285 22.5 15 22.5C14.2308 22.5 13.5967 21.921 13.5101 21.1749L13.5 21V15C13.5 14.1716 14.1716 13.5 15 13.5Z" fill="#354260"/>
</svg>
